<?xml version="1.0" encoding="utf-8"?>
<!-- Generator: Adobe Illustrator 21.0.0, SVG Export Plug-In . SVG Version: 6.00 Build 0)  -->
<svg version="1.1" id="Layer_1" xmlns="http://www.w3.org/2000/svg" xmlns:xlink="http://www.w3.org/1999/xlink" x="0px" y="0px"
	 viewBox="0 0 300 300" style="enable-background:new 0 0 300 300;" xml:space="preserve">
<style type="text/css">
	.st0{fill:none;stroke:#000000;stroke-width:2;stroke-miterlimit:10;}
	.st1{fill:#FCFCFC;stroke:#000000;stroke-width:2;stroke-miterlimit:10;}
</style>
<circle class="st0" cx="150" cy="130.2" r="118"/>
<circle class="st0" cx="103.7" cy="101.6" r="16.8"/>
<path class="st0" d="M199.3,71.4"/>
<path class="st0" d="M199.3,71.4c3.8,4.2,6.1,9.8,6.1,15.9c0,13.1-10.6,23.7-23.7,23.7S158,100.4,158,87.3s10.6-23.7,23.7-23.7
	c3.5,0,6.8,0.8,9.8,2.1"/>
<path class="st0" d="M225.4,119.4c-22.9,16.8-31.5,49.7-61.7,58c-26,7.2-68.6,11.3-86.3-20.2c-7-12.5-9.1-27.5-9.5-23
	c-0.9,10.4-4.6,22.5,0.8,39.3s37,38.6,45.9,35c30.7-12.4,39.4-10.3,55.1-7.1c19.8,4.1,46.5,4,64.9-25.3
	C260.5,135,236.5,111.2,225.4,119.4z"/>
<path class="st0" d="M93.6,130.2c0,0-25.5-30.1-33.6-19.1"/>
<circle class="st0" cx="181.7" cy="87.1" r="5.9"/>
<circle class="st0" cx="108.2" cy="100.2" r="4.5"/>
<path class="st0" d="M100.1,189.8"/>
<path class="st0" d="M231.9,144.3C221,162.1,195.5,183.8,169,192"/>
<path class="st0" d="M200,147.5c6.9-6.9,14.4-0.8,14.4-0.8s9.4,12.6,10.5,18.1c0,0,7.6,23.9-17.9,19"/>
<path class="st0" d="M213.4,145.2c0-0.1,0-0.3,0-0.4c0.2-8.6,11.2-12,16.3-5.1c2.5,3.4,5.4,7.6,7.2,10.9c1.3,2.4,1.4,5.2,0.2,7.7
	c-1.7,3.6-5.1,8.3-10.8,7.5"/>
<path class="st0" d="M190.2,159.2c0,0,16.7,20.8,17.8,30.5c0,0-12.6,15.6-28,12.6l-5.1-11.6"/>
<circle class="st0" cx="42.4" cy="116.3" r="3"/>
<circle class="st0" cx="250.3" cy="85.4" r="3"/>
<circle class="st0" cx="241.5" cy="284.7" r="3.7"/>
<circle class="st0" cx="237.4" cy="99.4" r="1.3"/>
<circle class="st0" cx="222.3" cy="106.6" r="1.3"/>
<circle class="st0" cx="167" cy="215.5" r="1.3"/>
<circle class="st0" cx="144.5" cy="229.2" r="1.3"/>
<circle class="st0" cx="131" cy="223" r="1.3"/>
<circle class="st0" cx="228.2" cy="92.2" r="1.3"/>
<circle class="st0" cx="234.3" cy="78.5" r="1.3"/>
<circle class="st0" cx="49.3" cy="148.3" r="1.3"/>
<circle class="st0" cx="40.1" cy="141.1" r="1.3"/>
<circle class="st0" cx="46.2" cy="127.4" r="1.3"/>
<path class="st0" d="M164.8,178.5l3.6,12.2c0.9,3-0.7,6.1-3.5,7.2c-1.1,0.4-2.4,0.9-3.9,1.3"/>
<line class="st0" x1="139.5" y1="182.1" x2="141.9" y2="199.5"/>
<path class="st0" d="M113.7,181.4c0,0-1.7,18.3-0.5,20s1.2,1.7,1.2,1.7l8,3.4"/>
<path class="st0" d="M112.2,198l-20.8-12c-2.1-1.2-3.4-3.6-3.1-6.1l1-8.3"/>
<line class="st0" x1="96.1" y1="188.4" x2="99.7" y2="204.8"/>
<path class="st0" d="M77.9,158.5c0,0-3.3,14.8,0.7,20.1c4,5.2,9,4,9,4l-2.9,10.8"/>
<path class="st0" d="M79.2,258.5v17.9c0,7.2-5.9,13.1-13.1,13.1l0,0c-7.2,0-13.1-5.9-13.1-13.1v-17.9"/>
<path class="st0" d="M88.1,260.9H102c5.1,0,9.2,4.1,9.2,9.2l0,0c0,5.1-4.1,9.2-9.2,9.2H89.4"/>
<path class="st0" d="M154.9,289h16.7c5.1,0,9.2-4.1,9.2-9.2l0,0c0-5.1-4.1-9.2-9.2-9.2h-10.9c-2.2,0-4.8-2.1-4.8-4.6l0,0
	c0-2.5,2.6-4.6,4.8-4.6h16.9"/>
<line class="st0" x1="88.1" y1="260.9" x2="88.1" y2="289"/>
<line class="st0" x1="123" y1="260.9" x2="123" y2="289"/>
<line class="st0" x1="104.8" y1="279.3" x2="114.4" y2="289"/>
<line class="st0" x1="122.3" y1="276.4" x2="137.2" y2="276.4"/>
<line class="st0" x1="188.9" y1="260.9" x2="188.9" y2="289"/>
<line class="st0" x1="216.2" y1="260.9" x2="216.2" y2="289"/>
<line class="st0" x1="227.8" y1="260.9" x2="227.8" y2="289"/>
<line class="st0" x1="122.3" y1="289" x2="148.5" y2="289"/>
<line class="st0" x1="122.3" y1="262.3" x2="148.5" y2="262.3"/>
<line class="st0" x1="190" y1="276.4" x2="216.2" y2="276.4"/>
<path class="st1" d="M201.8,65.7c-4.2-2.5-4.2-2.5-5-14.3c-0.8-11.8-0.3,8-4,12.3c-3.7,4.3-17,6-17,6s10.2-0.3,14.1,2.6
	c3.9,2.8,4.9,14.8,4.9,14.8s-2.1-14.1,6-16.3s16.2-4.4,16.2-4.4S206,68.2,201.8,65.7z"/>
</svg>
