<?xml version="1.0" encoding="utf-8"?>
<!-- Generator: Adobe Illustrator 21.0.0, SVG Export Plug-In . SVG Version: 6.00 Build 0)  -->
<svg version="1.1" id="Layer_1" xmlns="http://www.w3.org/2000/svg" xmlns:xlink="http://www.w3.org/1999/xlink" x="0px" y="0px"
	 viewBox="0 0 300 300" style="enable-background:new 0 0 300 300;" xml:space="preserve">
<style type="text/css">
	.st0{fill:none;stroke:#000000;stroke-width:2;stroke-miterlimit:10;}
	.st1{fill:#FFFFFF;stroke:#000000;stroke-width:2;stroke-miterlimit:10;}
</style>
<path class="st0" d="M260.9,89.7C244.4,44.5,201,12.2,150,12.2c-65.2,0-118,52.8-118,118s52.8,118,118,118
	c28.8,0,55.2-10.3,75.7-27.5"/>
<path class="st0" d="M239.8,206.7c17.6-20.6,28.2-47.4,28.2-76.6c0-10.5-1.4-20.7-3.9-30.4"/>
<circle class="st0" cx="42.4" cy="116.3" r="3"/>
<circle class="st0" cx="250" cy="165.3" r="3"/>
<path class="st1" d="M56.6,118.1c3.3,4.5,7.6,1.3,8.3-2.2c1.3-6.5,4.6-4.5,3-6.7s-8,0.5-10.2,2C55.5,112.9,55,115.9,56.6,118.1z"/>
<path class="st1" d="M262.9,130.7c-2.8,3.4-6,0.6-6.3-2.2c-0.7-5.1-3.4-3.8-2-5.4s6.2,0.8,7.8,2.1S264.2,129,262.9,130.7z"/>
<path class="st1" d="M273.2,95c-0.2,7.3-7.3,7-10.6,3.6c-6.2-6.1-10.1-4.1-12.8-4.7c-3.5-0.8,13.6-5.7,17.2-5.6
	C270.6,88.5,273.4,91.5,273.2,95z"/>
<circle class="st0" cx="241.5" cy="284.7" r="3.7"/>
<circle class="st0" cx="172.9" cy="193" r="1.3"/>
<circle class="st0" cx="259" cy="157.7" r="1.3"/>
<circle class="st0" cx="253" cy="173" r="1.3"/>
<circle class="st0" cx="150.4" cy="206.7" r="1.3"/>
<circle class="st0" cx="136.9" cy="200.6" r="1.3"/>
<circle class="st0" cx="49.3" cy="148.3" r="1.3"/>
<circle class="st0" cx="40.1" cy="141.1" r="1.3"/>
<circle class="st0" cx="46.2" cy="127.4" r="1.3"/>
<path class="st0" d="M78.4,289.5v-16.2c0-6.5,5.9-11.8,13.1-11.8l0,0c7.2,0,13.1,5.3,13.1,11.8v16.2"/>
<path class="st0" d="M154.9,289h16.7c5.1,0,9.2-4.1,9.2-9.2l0,0c0-5.1-4.1-9.2-9.2-9.2h-10.9c-2.2,0-4.8-2.1-4.8-4.6l0,0
	c0-2.5,2.6-4.6,4.8-4.6h16.9"/>
<path class="st0" d="M47.4,289h16.7c5.1,0,9.2-4.1,9.2-9.2l0,0c0-5.1-4.1-9.2-9.2-9.2H53.2c-2.2,0-4.8-2.1-4.8-4.6l0,0
	c0-2.5,2.6-4.6,4.8-4.6h16.9"/>
<path class="st0" d="M121.5,270.6h8.1c2.2,0,4.8-2.1,4.8-4.6l0,0c0-2.5-2.6-4.6-4.8-4.6h-16.1V289h13.9c5.1,0,9.2-4.1,9.2-9.2l0,0
	c0-5.1-4.1-9.2-9.2-9.2h-14"/>
<line class="st0" x1="188.9" y1="260.9" x2="188.9" y2="289"/>
<line class="st0" x1="216.2" y1="260.9" x2="216.2" y2="289"/>
<line class="st0" x1="227.8" y1="260.9" x2="227.8" y2="289"/>
<line class="st0" x1="146" y1="260.9" x2="146" y2="289"/>
<line class="st0" x1="190" y1="276.4" x2="216.2" y2="276.4"/>
<line class="st0" x1="77.8" y1="277.7" x2="104" y2="277.7"/>
<path class="st0" d="M69.4,98.1c-3.5,3.8,2,9.2,5.8,5.6c6.1-5.8,17.4-16.9,33.7-16.9c5.9,0,9,1.2,11.4,2.3
	c7.1,3.3,12.6-7.2,5.6-10.8c-9.7-5.1-28.7-2.3-45.5,10.1C75.6,91.9,72.1,95.1,69.4,98.1z"/>
<path class="st0" d="M254.9,150.8c-0.5,5.2-5.9,4.3-6.6-0.8c-2.4-17.4-19.6-29.1-23-33.3c-4.3-5.3-13-12.9-22.1-13.7
	c-5.2-0.5-12,3.8-15.5,4.4c-13,2-13.4-5.1-13.2-8.7c1-18.2,36.7-8,56.6,13.8c1.8,2,5.7,7.1,6.7,9.2
	C243.2,132.5,255.6,143.8,254.9,150.8z"/>
<path class="st1" d="M242,215.2c1.1,5.7-1.9,11.1-6.7,12c-9.8,1.8-11.7-9.5-8.4-15.9c2.5-4.8,2.8-8,2.6-10.2
	c-4.7,1.5-10.5,0.7-17-3.8c-19.6-13.6-42.2-40.7-77.8-34c-32.6,6.1-23.8,17.9-39.1,33.6c-7.2,7.4-30,18.1-34.6-5.2
	c-1.8-9.2,0.4-18.6,5.7-26.3c6.1-8.9,17.5-20.9,37.4-28.8c35.3-14,65.2-7.2,93.4-0.4c26.4,6.4,38.4,19.7,44.2,41.2
	c1.9,7-1,16.2-7.2,21.1C238,202.2,241.2,210.9,242,215.2z"/>
<path class="st0" d="M87.1,170.7c0,0-9.7,5-10.8,15.3c-1.1,10.2,8.6,17.8,8.6,17.8"/>
<path class="st0" d="M100.3,191.2c0,0-17.8-22.2-13.8-27.1c3-3.6,14-6.2,19.5-7.2c1.9-0.4,3.7,0.4,4.8,2l6.4,9.4"/>
<path class="st1" d="M141.5,162.4c-0.3,2.5,1.7-15.5,0-15.4c-1.2,0.1-30.6,11.9-30.6,11.9"/>
<path class="st1" d="M142,152.5l23.2,2c3,0.3,4.8,3.6,3.4,6.3l-2.4,4.6"/>
<path class="st1" d="M174.2,168.3c0,0,4.9-13.8,8.4-13.7c3.4,0.1,11.6,1.9,11.1,10.7s-2.8,15.1-2.8,15.1"/>
<path class="st1" d="M193.6,165.3c0,0,19.9,8.7,20.4,12.5s1.4,17.1-4.5,16.5"/>
<path class="st0" d="M128.5,86.2c-0.7,4.2-4.3,8.8-12.1,15.1"/>
<path class="st0" d="M111.8,67.7c4.3,0.5,9.1,3.8,15.8,11.2"/>
<path class="st0" d="M122.4,61.2c4.3,0.5,9.1,3.8,15.8,11.2"/>
<path class="st0" d="M174.4,102c0.7,4.2,4,8.8,11.2,15.1"/>
<path class="st0" d="M78.4,218.3c5.3,3.6,13.8,1.6,17.4-6.9"/>
<path class="st0" d="M185.5,203.8c1.8,6.1,12.9,22.4,21.2,18.3"/>
<path class="st0" d="M183.1,78.8c-3.4,2.6-5.8,7.8-7.9,17"/>
<path class="st0" d="M173,73.2c-3.4,2.6-5.8,7.8-7.9,17"/>
</svg>
